<svg width="135" height="140" viewBox="0 0 135 140" fill="none" xmlns="http://www.w3.org/2000/svg">
<path fill-rule="evenodd" clip-rule="evenodd" d="M108.769 83.6519C108.769 95.2972 98.984 104.738 86.9137 104.738C74.8434 104.738 65.0585 95.2972 65.0585 83.6519C65.0585 72.0067 74.8434 62.5663 86.9137 62.5663C98.984 62.5663 108.769 72.0067 108.769 83.6519ZM13.3342 51.6603C14.8897 51.0847 15.7139 50.5527 16.9768 49.4791C16.9768 49.4791 19.1623 48.0249 20.6193 44.3894C21.2198 42.8912 21.6718 41.6368 22.1079 40.4266C22.73 38.7002 23.3198 37.0637 24.2618 34.9373C25.8054 31.4531 28.6329 26.2122 28.6329 26.2122C28.6329 26.2122 31.6836 20.9034 34.4609 18.2142C37.4059 15.3627 39.519 14.2004 43.203 12.3975C46.1929 10.9343 51.2166 9.48914 51.2166 9.48914C51.2166 9.48914 55.1703 8.35801 57.7732 8.03496C60.7964 7.65975 62.6721 7.78315 65.462 7.96667C65.7986 7.98882 66.1485 8.01184 66.5153 8.03496C69.0864 8.19703 70.5316 8.33359 73.0719 8.76205C76.5417 9.3473 78.5011 9.75883 81.814 10.9433C83.8537 11.6726 86.9135 13.1246 86.9135 13.1246C86.9135 13.1246 91.943 15.5408 94.9271 17.4871C100.326 21.0087 106.381 27.0232 107.312 28.3935C107.522 28.7036 107.719 28.9805 107.905 29.2411C108.538 30.1319 109.037 30.8334 109.497 32.0289C109.918 33.1216 110.226 34.9373 110.226 34.9373C110.226 34.9373 110.599 37.2027 110.226 38.5727C109.315 41.9174 106.913 43.6624 103.669 43.6624H89.8276C81.814 43.6624 74.5831 44.4963 68.7008 45.8436C60.4564 47.732 52.4615 51.1615 48.3026 53.1145C44.5017 54.8994 42.3957 55.9847 38.832 58.2042C35.8858 60.039 34.3122 61.197 31.5469 63.2938C26.0912 67.4306 23.5333 69.8376 18.4338 74.9272C13.3342 80.0168 6.04915 91.6503 6.04915 91.6503L0.221087 102.557C0.792604 103.293 1.54451 104.37 2.44783 105.665C5.05052 109.396 8.91023 114.928 13.3342 119.28C19.2937 125.142 26.5868 129.735 30.5973 131.603C40.686 136.302 42.2699 136.694 49.333 138.443C49.9203 138.589 50.5455 138.744 51.2166 138.911C59.9587 141.092 71.8675 139.405 75.2574 138.911C78.1283 138.493 79.7361 138.192 82.5425 137.457C86.6334 136.386 88.8776 135.538 92.7416 133.821C96.5792 132.117 98.677 130.996 102.212 128.732C106.139 126.217 111.683 121.461 111.683 121.461C111.683 121.461 118.239 115.644 123.339 108.373C128.438 101.102 131.783 92.1098 132.81 88.0148C133.58 84.9404 133.81 83.0493 134.167 80.1102C134.199 79.8458 134.232 79.5728 134.267 79.2897L134.311 78.9263V78.9262C134.769 75.1932 135.041 72.9719 134.995 69.1105C134.954 65.6916 134.722 63.7743 134.267 60.3854L134.229 60.1085C133.83 57.132 133.593 55.3669 132.81 52.3874C132.241 50.2249 131.747 48.8879 131.067 47.0487C130.928 46.6719 130.781 46.274 130.624 45.8436C130.436 45.3279 130.265 44.8514 130.103 44.4009C129.364 42.3414 128.82 40.8242 127.71 38.5727C126.245 35.6016 125.228 34.0237 123.339 31.3018C121.036 27.9846 119.513 26.2807 116.782 23.3038C114.609 20.9342 110.954 17.4871 110.954 17.4871C110.954 17.4871 106.583 13.8516 102.941 11.6704C99.2982 9.48917 91.8447 5.91594 89.8275 5.1266L89.7144 5.08232C86.4341 3.79865 84.5424 3.05838 81.0854 2.21824C78.1368 1.50162 76.1856 1.28242 73.5714 0.988732C72.9622 0.920298 72.317 0.847819 71.6149 0.76406C71.1467 0.708214 70.7093 0.654752 70.2934 0.603916C67.9376 0.315943 66.2711 0.112242 63.6013 0.0369698C59.0422 -0.0915667 56.4582 0.106609 51.9451 0.76406C49.0742 1.18229 47.4656 1.48034 44.6601 2.21824C39.959 3.45467 37.3997 4.50843 33.0039 6.58078C28.856 8.53628 26.6015 9.82773 22.8048 12.3975C20.4502 13.9912 19.1342 14.909 16.9768 16.76C14.5359 18.8542 11.1487 22.5768 11.1487 22.5768C11.1487 22.5768 2.40663 32.0289 0.221031 39.2998C-0.276253 40.9542 0.221048 45.8436 0.221048 45.8436C0.221048 45.8436 0.908891 47.7405 1.67806 48.752C4.47789 52.434 8.9918 53.2673 13.3342 51.6603Z" fill="url(#paint0_linear_8095_10898)"/>
<defs>
<linearGradient id="paint0_linear_8095_10898" x1="67.5" y1="0" x2="67.5" y2="140" gradientUnits="userSpaceOnUse">
<stop stop-color="#E69633"/>
<stop offset="1" stop-color="#CF497E"/>
</linearGradient>
</defs>
</svg>
