<svg width="20" height="20" viewBox="0 0 20 20" fill="none" xmlns="http://www.w3.org/2000/svg">
<path d="M17.9167 1.96154H15.5417V1.23077C15.5417 1.03696 15.4583 0.851083 15.3098 0.714037C15.1613 0.576992 14.96 0.5 14.75 0.5C14.54 0.5 14.3387 0.576992 14.1902 0.714037C14.0417 0.851083 13.9583 1.03696 13.9583 1.23077V1.96154H6.04167V1.23077C6.04167 1.03696 5.95826 0.851083 5.80979 0.714037C5.66133 0.576992 5.45996 0.5 5.25 0.5C5.04004 0.5 4.83867 0.576992 4.69021 0.714037C4.54174 0.851083 4.45833 1.03696 4.45833 1.23077V1.96154H2.08333C1.66341 1.96154 1.26068 2.11552 0.963748 2.38961C0.666815 2.6637 0.5 3.03545 0.5 3.42308V18.0385C0.5 18.4261 0.666815 18.7978 0.963748 19.0719C1.26068 19.346 1.66341 19.5 2.08333 19.5H17.9167C18.3366 19.5 18.7393 19.346 19.0363 19.0719C19.3332 18.7978 19.5 18.4261 19.5 18.0385V3.42308C19.5 3.03545 19.3332 2.6637 19.0363 2.38961C18.7393 2.11552 18.3366 1.96154 17.9167 1.96154ZM4.45833 3.42308V4.15385C4.45833 4.34766 4.54174 4.53353 4.69021 4.67058C4.83867 4.80762 5.04004 4.88462 5.25 4.88462C5.45996 4.88462 5.66133 4.80762 5.80979 4.67058C5.95826 4.53353 6.04167 4.34766 6.04167 4.15385V3.42308H13.9583V4.15385C13.9583 4.34766 14.0417 4.53353 14.1902 4.67058C14.3387 4.80762 14.54 4.88462 14.75 4.88462C14.96 4.88462 15.1613 4.80762 15.3098 4.67058C15.4583 4.53353 15.5417 4.34766 15.5417 4.15385V3.42308H17.9167V6.34615H2.08333V3.42308H4.45833ZM17.9167 18.0385H2.08333V7.80769H17.9167V18.0385Z" fill="#B3B3B3"/>
</svg>
