<svg width="22" height="18" viewBox="0 0 22 18" fill="none" xmlns="http://www.w3.org/2000/svg">
<path fill-rule="evenodd" clip-rule="evenodd" d="M8.15813 0.5H13.8426C14.2324 0.5 14.7439 0.748616 14.9838 1.05517L16.5459 3.31225C16.6985 3.5319 16.9522 3.6653 17.2231 3.6653H20.5823C21.3661 3.6653 22 4.29189 22 5.06873V16.0959C22 16.8714 21.3661 17.5 20.5823 17.5H1.41836C0.634582 17.5 0 16.8727 0 16.0959V5.06873C0 4.29324 0.634582 3.6653 1.41836 3.6653H4.79134C5.05328 3.6653 5.29873 3.53729 5.44723 3.32438L7.01616 1.05517C7.25679 0.749289 7.77037 0.5 8.15813 0.5ZM16.3232 5.42239C16.3232 5.81047 16.6408 6.12511 17.0327 6.12511C17.4253 6.12511 17.7422 5.81047 17.7422 5.42239C17.7422 5.0343 17.4253 4.71899 17.0327 4.71899C16.6408 4.71899 16.3232 5.0343 16.3232 5.42239ZM5.77344 10.2484C5.77344 13.1079 8.11346 15.4259 11.0003 15.4259C13.8872 15.4259 16.2265 13.1079 16.2265 10.2484C16.2265 7.38811 13.8872 5.07085 11.0003 5.07085C8.11346 5.07085 5.77344 7.38811 5.77344 10.2484ZM2.12853 1.20326H3.54895C3.94084 1.20326 4.25778 1.51588 4.25778 1.90666V2.60939H1.41901V1.90666C1.41901 1.5179 1.73458 1.20326 2.12853 1.20326ZM6.72473 10.2498C6.72473 7.90947 8.63845 6.01414 11.0003 6.01414C13.3621 6.01414 15.2758 7.90947 15.2758 10.2498C15.2758 12.5895 13.3621 14.4855 11.0003 14.4855C8.63845 14.4855 6.72473 12.5895 6.72473 10.2498Z" fill="#B3B3B3"/>
</svg>
