<svg width="20" height="18" viewBox="0 0 20 18" fill="none" xmlns="http://www.w3.org/2000/svg">
<path d="M19.3499 14.2873L11.8351 1.75819C11.6473 1.45124 11.3792 1.19672 11.0574 1.01988C10.7356 0.843033 10.3712 0.75 10.0004 0.75C9.62962 0.75 9.26526 0.843033 8.94345 1.01988C8.62163 1.19672 8.35355 1.45124 8.16576 1.75819L0.650908 14.2873C0.470221 14.5842 0.375 14.9219 0.375 15.2658C0.375 15.6096 0.470221 15.9473 0.650908 16.2442C0.836292 16.553 1.10392 16.8089 1.42633 16.9857C1.74875 17.1624 2.11433 17.2536 2.48558 17.2499H17.5153C17.8862 17.2533 18.2515 17.162 18.5735 16.9853C18.8956 16.8085 19.163 16.5528 19.3482 16.2442C19.5292 15.9475 19.6247 15.6099 19.625 15.266C19.6253 14.9221 19.5304 14.5844 19.3499 14.2873ZM18.1581 15.5834C18.0925 15.6907 17.9985 15.7793 17.8855 15.8402C17.7726 15.9011 17.6448 15.9321 17.5153 15.9299H2.48558C2.35606 15.9321 2.22827 15.9011 2.11532 15.8402C2.00237 15.7793 1.90831 15.6907 1.8428 15.5834C1.78346 15.487 1.75216 15.377 1.75216 15.265C1.75216 15.1529 1.78346 15.043 1.8428 14.9465L9.35765 2.41736C9.42448 2.31059 9.51896 2.22223 9.6319 2.16089C9.74484 2.09955 9.87239 2.06731 10.0021 2.06731C10.1319 2.06731 10.2595 2.09955 10.3724 2.16089C10.4853 2.22223 10.5798 2.31059 10.6466 2.41736L18.1615 14.9465C18.2203 15.0433 18.251 15.1534 18.2504 15.2654C18.2498 15.3774 18.2179 15.4873 18.1581 15.5834ZM9.31296 10.65V7.34999C9.31296 7.17495 9.38539 7.00708 9.51432 6.8833C9.64324 6.75953 9.8181 6.69 10.0004 6.69C10.1828 6.69 10.3576 6.75953 10.4865 6.8833C10.6155 7.00708 10.6879 7.17495 10.6879 7.34999V10.65C10.6879 10.825 10.6155 10.9929 10.4865 11.1166C10.3576 11.2404 10.1828 11.31 10.0004 11.31C9.8181 11.31 9.64324 11.2404 9.51432 11.1166C9.38539 10.9929 9.31296 10.825 9.31296 10.65ZM11.0316 13.6199C11.0316 13.8157 10.9711 14.0071 10.8578 14.1699C10.7445 14.3327 10.5835 14.4596 10.3951 14.5346C10.2066 14.6095 9.99928 14.6291 9.79925 14.5909C9.59922 14.5527 9.41548 14.4584 9.27126 14.32C9.12705 14.1815 9.02883 14.0051 8.98905 13.8131C8.94926 13.621 8.96968 13.422 9.04773 13.2411C9.12578 13.0602 9.25795 12.9056 9.42753 12.7968C9.59711 12.688 9.79648 12.6299 10.0004 12.6299C10.2739 12.6299 10.5362 12.7342 10.7296 12.9199C10.923 13.1056 11.0316 13.3574 11.0316 13.6199Z" fill="#ED3E3E"/>
</svg>
