<svg width="22" height="20" viewBox="0 0 22 20" fill="none" xmlns="http://www.w3.org/2000/svg">
<path fill-rule="evenodd" clip-rule="evenodd" d="M16.6921 4.93583V4.80046C16.6921 4.16473 17.2331 3.64936 17.9109 3.64936C18.584 3.64936 19.1297 4.15825 19.1297 4.80046V6.97377L21.06 8.58753C21.7868 9.19519 21.5929 9.68779 20.6285 9.68779H19.1297V18.6735C19.1297 19.13 18.728 19.5 18.256 19.5H3.75264C3.2701 19.5 2.87892 19.1312 2.87892 18.6735V9.68779H1.37236C0.40726 9.68779 0.212539 9.19649 0.940927 8.58753L10.3397 0.729829C10.7046 0.424733 11.2931 0.42205 11.6612 0.729829L16.6921 4.93583ZM13.442 11.5746V17.1224H16.6921V11.5746H13.442Z" fill="#B3B3B3"/>
</svg>
