<svg width="75" height="80" viewBox="0 0 75 80" fill="none" xmlns="http://www.w3.org/2000/svg">
<path fill-rule="evenodd" clip-rule="evenodd" d="M60.1215 47.6063C60.1215 54.0944 54.7579 59.354 48.1416 59.354C41.5253 59.354 36.1617 54.0944 36.1617 47.6063C36.1617 41.1183 41.5253 35.8586 48.1416 35.8586C54.7579 35.8586 60.1215 41.1183 60.1215 47.6063ZM7.80914 29.7822C8.66174 29.4615 9.11357 29.1651 9.80579 28.5669C9.80579 28.5669 11.0038 27.7567 11.8024 25.7313C12.1316 24.8965 12.3794 24.1977 12.6184 23.5234C12.9594 22.5616 13.2827 21.6498 13.7991 20.4651C14.6452 18.5239 16.1951 15.6039 16.1951 15.6039C16.1951 15.6039 17.8673 12.6462 19.3897 11.1479C21.004 9.55924 22.1623 8.91166 24.1817 7.90717C25.8206 7.09196 28.5743 6.2868 28.5743 6.2868C28.5743 6.2868 30.7415 5.6566 32.1683 5.47662C33.8254 5.26757 34.8536 5.33632 36.3828 5.43857C36.5674 5.45091 36.7592 5.46373 36.9602 5.47662C38.3696 5.56691 39.1618 5.643 40.5542 5.88171C42.4562 6.20778 43.5302 6.43706 45.3462 7.09699C46.4643 7.50331 48.1415 8.31227 48.1415 8.31227C48.1415 8.31227 50.8984 9.65847 52.5341 10.7428C55.4938 12.7048 58.8124 16.0558 59.3227 16.8192C59.4383 16.992 59.5461 17.1463 59.6477 17.2915C59.9948 17.7878 60.2682 18.1786 60.5207 18.8447C60.7515 19.4535 60.9201 20.4651 60.9201 20.4651C60.9201 20.4651 61.1245 21.7272 60.9201 22.4905C60.4209 24.354 59.1042 25.3262 57.3261 25.3262H49.7388C45.3462 25.3262 41.3826 25.7908 38.1582 26.5414C33.639 27.5935 29.2567 29.5043 26.977 30.5924C24.8935 31.5868 23.7391 32.1915 21.7857 33.428C20.1707 34.4503 19.3082 35.0955 17.7924 36.2637C14.8018 38.5685 13.3998 39.9095 10.6045 42.7452C7.80914 45.5808 3.81584 52.0623 3.81584 52.0623L0.621198 58.1387C0.934471 58.5488 1.34662 59.1492 1.84177 59.8706C3.26843 61.949 5.38413 65.0313 7.80915 67.4558C11.0758 70.7219 15.0735 73.2811 17.2719 74.3218C22.802 76.9398 23.6702 77.1583 27.5418 78.1328C27.8637 78.2138 28.2064 78.3 28.5743 78.3933C33.3663 79.6086 39.894 78.6686 41.7522 78.3933C43.3259 78.1602 44.2072 77.9926 45.7455 77.5832C47.9879 76.9862 49.2181 76.5139 51.3361 75.5577C53.4397 74.6079 54.5896 73.9836 56.5274 72.722C58.68 71.3207 61.7187 68.6711 61.7187 68.6711C61.7187 68.6711 65.3127 65.4304 68.108 61.3795C70.9033 57.3285 72.7366 52.3183 73.2993 50.0368C73.7218 48.324 73.8476 47.2704 74.0432 45.633C74.0608 45.4856 74.079 45.3335 74.098 45.1757L74.1224 44.973V44.973C74.3732 42.8932 74.5224 41.6557 74.4973 39.5044C74.4751 37.5996 74.3475 36.5314 74.098 34.6433L74.0776 34.4889L74.0775 34.4888C73.8586 32.8306 73.7287 31.8472 73.2993 30.1873C72.9876 28.9824 72.7168 28.2375 72.3443 27.2128C72.268 27.0029 72.1874 26.7812 72.1013 26.5414C71.9981 26.2541 71.9044 25.9886 71.8158 25.7376C71.4108 24.5902 71.1124 23.7449 70.504 22.4905C69.701 20.8352 69.1437 19.9561 68.108 18.4396C66.8457 16.5914 66.0106 15.6421 64.514 13.9836C63.3227 12.6633 61.3194 10.7428 61.3194 10.7428C61.3194 10.7428 58.9234 8.71734 56.9268 7.50208C54.9301 6.28682 50.8445 4.29602 49.7388 3.85625L49.6767 3.83156C47.8787 3.11638 46.8417 2.70395 44.9468 2.23587C43.3305 1.83662 42.261 1.71449 40.828 1.55086C40.4941 1.51274 40.1404 1.47235 39.7555 1.42569C39.4989 1.39457 39.2592 1.36479 39.0312 1.33647C37.7398 1.17602 36.8264 1.06253 35.3629 1.0206C32.8639 0.948982 31.4475 1.05939 28.9736 1.42569C27.3999 1.6587 26.5182 1.82476 24.9803 2.23587C22.4035 2.92474 21.0006 3.51184 18.5911 4.66643C16.3174 5.75593 15.0816 6.47545 13.0004 7.90717C11.7098 8.79509 10.9884 9.30646 9.80579 10.3377C8.46785 11.5045 6.61115 13.5785 6.61115 13.5785C6.61115 13.5785 1.8192 18.8447 0.621167 22.8956C0.348582 23.8173 0.621176 26.5414 0.621176 26.5414C0.621176 26.5414 0.998216 27.5983 1.41984 28.1618C2.95456 30.2132 5.42885 30.6775 7.80914 29.7822Z" fill="#EEEEEF"/>
<path d="M9.80579 28.5669L9.52569 28.1527L9.50122 28.1693L9.47887 28.1886L9.80579 28.5669ZM7.80914 29.7822L7.63311 29.3142L7.80914 29.7822ZM11.8024 25.7313L12.2676 25.9147L11.8024 25.7313ZM12.6184 23.5234L12.1472 23.3563L12.6184 23.5234ZM13.7991 20.4651L13.3407 20.2653L13.7991 20.4651ZM16.1951 15.6039L15.7597 15.3578L15.7534 15.3695L16.1951 15.6039ZM19.3897 11.1479L19.7404 11.5043L19.3897 11.1479ZM24.1817 7.90717L23.959 7.4595L24.1817 7.90717ZM28.5743 6.2868L28.4347 5.80669L28.434 5.8069L28.5743 6.2868ZM32.1683 5.47662L32.2309 5.97269L32.1683 5.47662ZM36.3828 5.43857L36.3495 5.93746L36.3828 5.43857ZM36.9602 5.47662L36.9283 5.97559H36.9283L36.9602 5.47662ZM40.5542 5.88171L40.4697 6.37452L40.5542 5.88171ZM45.3462 7.09699L45.1754 7.56692L45.3462 7.09699ZM48.1415 8.31227L48.3609 7.86297L48.3587 7.86191L48.1415 8.31227ZM52.5341 10.7428L52.8104 10.3261L52.5341 10.7428ZM59.3227 16.8192L59.7384 16.5413L59.7384 16.5413L59.3227 16.8192ZM59.6477 17.2915L60.0574 17.0049L60.0574 17.0049L59.6477 17.2915ZM60.5207 18.8447L60.9883 18.6674L60.5207 18.8447ZM60.9201 20.4651L61.4136 20.3851L61.4133 20.3829L60.9201 20.4651ZM60.9201 22.4905L61.403 22.6199V22.6199L60.9201 22.4905ZM38.1582 26.5414L38.2716 27.0284L38.1582 26.5414ZM26.977 30.5924L27.1924 31.0436L26.977 30.5924ZM21.7857 33.428L22.0531 33.8505H22.0531L21.7857 33.428ZM17.7924 36.2637L17.4872 35.8676L17.7924 36.2637ZM10.6045 42.7452L10.2484 42.3941L10.6045 42.7452ZM3.81584 52.0623L3.39015 51.8L3.38121 51.8145L3.37328 51.8296L3.81584 52.0623ZM0.621198 58.1387L0.178635 57.906L0.030084 58.1886L0.223879 58.4422L0.621198 58.1387ZM1.84177 59.8706L1.42954 60.1535H1.42954L1.84177 59.8706ZM7.80915 67.4558L8.16266 67.1023H8.16266L7.80915 67.4558ZM17.2719 74.3218L17.4858 73.8699L17.2719 74.3218ZM27.5418 78.1328L27.6638 77.6479H27.6638L27.5418 78.1328ZM28.5743 78.3933L28.4514 78.878H28.4514L28.5743 78.3933ZM41.7522 78.3933L41.8255 78.8879V78.8879L41.7522 78.3933ZM45.7455 77.5832L45.8741 78.0663L45.7455 77.5832ZM51.3361 75.5577L51.5419 76.0134L51.3361 75.5577ZM56.5274 72.722L56.8002 73.1411L56.5274 72.722ZM61.7187 68.6711L62.0474 69.048L62.0535 69.0424L61.7187 68.6711ZM68.108 61.3795L68.5195 61.6634L68.108 61.3795ZM73.2993 50.0368L73.7847 50.1566L73.2993 50.0368ZM74.0432 45.633L74.5397 45.6923L74.5397 45.6923L74.0432 45.633ZM74.098 45.1757L73.6015 45.1159L73.6015 45.1159L74.098 45.1757ZM74.1224 44.973L74.6188 45.0329L74.6224 45.0031V44.973H74.1224ZM74.1224 44.973L73.626 44.9131L73.6224 44.9429V44.973H74.1224ZM74.4973 39.5044L73.9973 39.5103L74.4973 39.5044ZM74.098 34.6433L73.6023 34.7088L73.6023 34.7088L74.098 34.6433ZM74.0776 34.4889L74.5732 34.4234L74.5704 34.4017L74.5656 34.3804L74.0776 34.4889ZM74.0775 34.4888L73.5818 34.5542L73.5847 34.5759L73.5894 34.5972L74.0775 34.4888ZM73.2993 30.1873L73.7834 30.0621V30.0621L73.2993 30.1873ZM72.3443 27.2128L72.8142 27.042V27.042L72.3443 27.2128ZM72.1013 26.5414L72.5719 26.3725V26.3725L72.1013 26.5414ZM71.8158 25.7376L71.3443 25.904V25.904L71.8158 25.7376ZM70.504 22.4905L70.9538 22.2723L70.504 22.4905ZM68.108 18.4396L68.5209 18.1576L68.5209 18.1576L68.108 18.4396ZM64.514 13.9836L64.8852 13.6486L64.514 13.9836ZM61.3194 10.7428L61.6654 10.3819L61.6541 10.3711L61.6422 10.361L61.3194 10.7428ZM56.9268 7.50208L56.6668 7.92919L56.9268 7.50208ZM49.7388 3.85625L49.9236 3.39164L49.9236 3.39164L49.7388 3.85625ZM49.6767 3.83156L49.4919 4.29616L49.492 4.29617L49.6767 3.83156ZM44.9468 2.23587L44.8269 2.72128L44.9468 2.23587ZM40.828 1.55086L40.8847 1.05409V1.05409L40.828 1.55086ZM39.7555 1.42569L39.6954 1.92205V1.92205L39.7555 1.42569ZM39.0312 1.33647L39.0929 0.84028L39.0312 1.33647ZM35.3629 1.0206L35.3486 1.52039L35.3629 1.0206ZM28.9736 1.42569L28.9004 0.931081L28.9736 1.42569ZM24.9803 2.23587L24.8512 1.75284L24.9803 2.23587ZM18.5911 4.66643L18.8071 5.11734L18.5911 4.66643ZM13.0004 7.90717L13.2838 8.31911L13.0004 7.90717ZM9.80579 10.3377L9.47717 9.96089H9.47717L9.80579 10.3377ZM6.61115 13.5785L6.98098 13.915L6.98368 13.912L6.61115 13.5785ZM0.621167 22.8956L0.141696 22.7538H0.141696L0.621167 22.8956ZM0.621176 26.5414L0.123661 26.5912L0.129739 26.652L0.15025 26.7095L0.621176 26.5414ZM1.41984 28.1618L1.01948 28.4613L1.41984 28.1618ZM48.1416 59.854C55.0248 59.854 60.6215 54.3797 60.6215 47.6063H59.6215C59.6215 53.8091 54.4911 58.854 48.1416 58.854V59.854ZM35.6617 47.6063C35.6617 54.3797 41.2584 59.854 48.1416 59.854V58.854C41.7922 58.854 36.6617 53.8091 36.6617 47.6063H35.6617ZM48.1416 35.3586C41.2584 35.3586 35.6617 40.8329 35.6617 47.6063H36.6617C36.6617 41.4036 41.7922 36.3586 48.1416 36.3586V35.3586ZM60.6215 47.6063C60.6215 40.8329 55.0248 35.3586 48.1416 35.3586V36.3586C54.4911 36.3586 59.6215 41.4036 59.6215 47.6063H60.6215ZM9.47887 28.1886C8.8222 28.7561 8.42032 29.0181 7.63311 29.3142L7.98517 30.2502C8.90317 29.9049 9.40495 29.5741 10.1327 28.9452L9.47887 28.1886ZM11.3373 25.5479C10.9613 26.5014 10.4943 27.1617 10.1286 27.5791C9.94551 27.788 9.78761 27.9363 9.67894 28.03C9.62462 28.0768 9.58265 28.11 9.55608 28.1302C9.54279 28.1403 9.53336 28.1472 9.52817 28.1509C9.52557 28.1528 9.52403 28.1539 9.5236 28.1542C9.52339 28.1543 9.52345 28.1543 9.5238 28.154C9.52397 28.1539 9.52421 28.1537 9.52453 28.1535C9.52469 28.1534 9.52486 28.1533 9.52505 28.1532C9.52515 28.1531 9.52531 28.153 9.52536 28.153C9.52552 28.1528 9.52569 28.1527 9.80579 28.5669C10.0859 28.9811 10.0861 28.981 10.0863 28.9808C10.0863 28.9808 10.0865 28.9807 10.0866 28.9806C10.0869 28.9804 10.0872 28.9802 10.0875 28.98C10.0881 28.9796 10.0888 28.9791 10.0895 28.9786C10.091 28.9776 10.0928 28.9763 10.0949 28.9749C10.0991 28.972 10.1043 28.9683 10.1107 28.9637C10.1235 28.9546 10.1405 28.9421 10.1616 28.9261C10.2036 28.8941 10.2615 28.8481 10.332 28.7873C10.4729 28.6658 10.6644 28.485 10.8807 28.2382C11.3136 27.7441 11.8449 26.9866 12.2676 25.9147L11.3373 25.5479ZM12.1472 23.3563C11.9081 24.0307 11.6629 24.7221 11.3373 25.5479L12.2676 25.9147C12.6003 25.0709 12.8507 24.3646 13.0897 23.6905L12.1472 23.3563ZM13.3407 20.2653C12.8167 21.4675 12.4884 22.3938 12.1472 23.3563L13.0897 23.6905C13.4304 22.7293 13.7487 21.832 14.2574 20.6648L13.3407 20.2653ZM16.1951 15.6039C15.7534 15.3695 15.7534 15.3695 15.7534 15.3696C15.7534 15.3696 15.7534 15.3696 15.7533 15.3697C15.7533 15.3698 15.7532 15.3699 15.7531 15.3701C15.7529 15.3705 15.7526 15.3711 15.7522 15.3718C15.7514 15.3733 15.7503 15.3755 15.7488 15.3783C15.7458 15.384 15.7413 15.3924 15.7354 15.4035C15.7238 15.4256 15.7066 15.4582 15.6844 15.5003C15.6401 15.5844 15.5759 15.7067 15.4963 15.8594C15.3371 16.1647 15.1161 16.5921 14.8684 17.0804C14.3744 18.0547 13.7699 19.2807 13.3407 20.2653L14.2574 20.6648C14.6744 19.7083 15.2679 18.5037 15.7603 17.5327C16.0059 17.0484 16.2252 16.6245 16.383 16.3217C16.462 16.1703 16.5255 16.0492 16.5693 15.9661C16.5911 15.9246 16.608 15.8925 16.6195 15.8709C16.6252 15.8601 16.6295 15.8519 16.6324 15.8464C16.6339 15.8437 16.635 15.8417 16.6357 15.8403C16.636 15.8396 16.6363 15.8391 16.6365 15.8388C16.6366 15.8386 16.6366 15.8385 16.6367 15.8385C16.6367 15.8384 16.6367 15.8384 16.6367 15.8384C16.6367 15.8384 16.6367 15.8384 16.1951 15.6039ZM19.039 10.7915C18.2378 11.58 17.4152 12.7316 16.8035 13.6634C16.4948 14.1336 16.2346 14.556 16.0515 14.861C15.9599 15.0136 15.8874 15.137 15.8376 15.2227C15.8127 15.2655 15.7935 15.2989 15.7804 15.3218C15.7738 15.3333 15.7688 15.3421 15.7653 15.3481C15.7636 15.3512 15.7623 15.3535 15.7614 15.3551C15.7609 15.3559 15.7605 15.3566 15.7603 15.357C15.7602 15.3573 15.7601 15.3574 15.76 15.3576C15.7599 15.3576 15.7599 15.3577 15.7599 15.3578C15.7598 15.3578 15.7598 15.3579 16.1951 15.6039C16.6303 15.85 16.6303 15.85 16.6303 15.8501C16.6303 15.85 16.6303 15.8501 16.6303 15.85C16.6303 15.85 16.6304 15.8499 16.6305 15.8498C16.6306 15.8495 16.6309 15.8491 16.6312 15.8485C16.6319 15.8472 16.633 15.8453 16.6345 15.8427C16.6375 15.8375 16.642 15.8295 16.6481 15.8189C16.6602 15.7977 16.6784 15.7661 16.7022 15.7251C16.7498 15.6432 16.8199 15.5239 16.9088 15.3758C17.0868 15.0794 17.3398 14.6687 17.6395 14.2122C18.2445 13.2905 19.0192 12.2141 19.7404 11.5043L19.039 10.7915ZM23.959 7.4595C21.9201 8.47369 20.7079 9.14908 19.039 10.7915L19.7404 11.5043C21.3001 9.9694 22.4044 9.34963 24.4044 8.35485L23.959 7.4595ZM28.5743 6.2868C28.434 5.8069 28.4339 5.80691 28.4339 5.80692C28.4339 5.80693 28.4338 5.80695 28.4338 5.80696C28.4336 5.807 28.4335 5.80705 28.4333 5.80711C28.4329 5.80722 28.4323 5.80739 28.4316 5.80761C28.4301 5.80804 28.428 5.80867 28.4252 5.80948C28.4196 5.81112 28.4115 5.81352 28.4009 5.81666C28.3797 5.82293 28.3487 5.83217 28.3088 5.84418C28.2289 5.86819 28.1135 5.90328 27.97 5.94789C27.6831 6.03708 27.2835 6.16454 26.8319 6.31781C25.9347 6.62233 24.81 7.03618 23.959 7.4595L24.4044 8.35485C25.1922 7.96296 26.2639 7.56662 27.1533 7.26476C27.595 7.11484 27.9862 6.99006 28.2669 6.90281C28.4071 6.8592 28.5196 6.82501 28.5968 6.80181C28.6354 6.7902 28.6651 6.78135 28.6851 6.77543C28.695 6.77248 28.7026 6.77025 28.7075 6.76879C28.71 6.76806 28.7119 6.76752 28.713 6.76717C28.7136 6.767 28.7141 6.76687 28.7143 6.7668C28.7145 6.76676 28.7146 6.76673 28.7146 6.76672C28.7146 6.76671 28.7146 6.76671 28.7146 6.7667C28.7146 6.76671 28.7146 6.76671 28.5743 6.2868ZM32.1057 4.98055C31.3612 5.07447 30.4386 5.2832 29.715 5.46414C29.3504 5.55529 29.0311 5.6407 28.8029 5.70336C28.6887 5.7347 28.5971 5.7604 28.5339 5.77832C28.5023 5.78728 28.4777 5.7943 28.4609 5.79912C28.4526 5.80152 28.4461 5.80338 28.4417 5.80466C28.4395 5.80529 28.4378 5.80578 28.4366 5.80612C28.4361 5.80629 28.4356 5.80643 28.4353 5.80652C28.4351 5.80657 28.435 5.80661 28.4349 5.80663C28.4348 5.80665 28.4348 5.80666 28.4348 5.80667C28.4347 5.80668 28.4347 5.80669 28.5743 6.2868C28.7139 6.76692 28.7139 6.76692 28.7139 6.76692C28.7139 6.76692 28.7139 6.76692 28.7139 6.76691C28.714 6.7669 28.714 6.76688 28.7141 6.76686C28.7143 6.7668 28.7147 6.7667 28.7151 6.76657C28.716 6.7663 28.7175 6.76589 28.7194 6.76532C28.7233 6.7642 28.7292 6.7625 28.737 6.76025C28.7527 6.75574 28.7761 6.74905 28.8065 6.74043C28.8674 6.72318 28.9563 6.69823 29.0676 6.66768C29.2903 6.60656 29.602 6.52317 29.9575 6.43427C30.6741 6.25511 31.5486 6.05875 32.2309 5.97269L32.1057 4.98055ZM36.4162 4.93969C34.8828 4.83716 33.8138 4.76508 32.1057 4.98055L32.2309 5.97269C33.837 5.77007 34.8244 5.83549 36.3495 5.93746L36.4162 4.93969ZM36.9922 4.97764C36.7919 4.96481 36.6008 4.95203 36.4162 4.93969L36.3495 5.93746C36.5339 5.94979 36.7264 5.96266 36.9283 5.97559L36.9922 4.97764ZM40.6387 5.3889C39.2242 5.14641 38.4137 5.06872 36.9922 4.97764L36.9283 5.97559C38.3255 6.06511 39.0993 6.13959 40.4697 6.37452L40.6387 5.3889ZM45.5169 6.62706C43.6629 5.95329 42.5572 5.71781 40.6387 5.3889L40.4697 6.37452C42.3552 6.69775 43.3975 6.92083 45.1754 7.56692L45.5169 6.62706ZM48.1415 8.31227C48.3587 7.86191 48.3587 7.8619 48.3586 7.86189C48.3586 7.86188 48.3586 7.86187 48.3586 7.86185C48.3585 7.86182 48.3584 7.86177 48.3583 7.86171C48.358 7.8616 48.3577 7.86143 48.3572 7.86122C48.3564 7.86079 48.3551 7.86017 48.3534 7.85936C48.35 7.85774 48.3451 7.85537 48.3386 7.85228C48.3258 7.84609 48.3068 7.83704 48.2825 7.82541C48.2337 7.80216 48.163 7.76859 48.0748 7.72708C47.8984 7.6441 47.6515 7.52922 47.3693 7.40148C46.8081 7.14748 46.0948 6.83707 45.5169 6.62706L45.1754 7.56692C45.7156 7.76323 46.4 8.06045 46.9569 8.31251C47.2338 8.4378 47.4761 8.55056 47.6491 8.63196C47.7356 8.67264 47.8047 8.70545 47.852 8.72802C47.8757 8.7393 47.8939 8.74802 47.9061 8.75389C47.9122 8.75682 47.9168 8.75904 47.9199 8.76051C47.9214 8.76124 47.9225 8.76179 47.9233 8.76214C47.9236 8.76232 47.9239 8.76245 47.9241 8.76253C47.9242 8.76257 47.9242 8.7626 47.9242 8.76261C47.9243 8.76262 47.9243 8.76262 47.9243 8.76262C47.9243 8.76262 47.9243 8.76262 48.1415 8.31227ZM52.8104 10.3261C51.9708 9.76949 50.8544 9.15234 49.9579 8.67881C49.5077 8.44095 49.109 8.2373 48.8228 8.09306C48.6797 8.02092 48.5646 7.96358 48.4851 7.92419C48.4453 7.9045 48.4145 7.88929 48.3935 7.87895C48.3829 7.87379 48.3749 7.86984 48.3694 7.86716C48.3667 7.86582 48.3646 7.8648 48.3632 7.8641C48.3625 7.86375 48.3619 7.86348 48.3615 7.86329C48.3613 7.86319 48.3612 7.86312 48.3611 7.86307C48.361 7.86304 48.361 7.86302 48.3609 7.863C48.3609 7.86298 48.3609 7.86297 48.1415 8.31227C47.9221 8.76156 47.9221 8.76156 47.9221 8.76156C47.9221 8.76157 47.9221 8.76157 47.9221 8.76159C47.9222 8.76162 47.9223 8.76167 47.9224 8.76174C47.9227 8.76188 47.9232 8.7621 47.9238 8.7624C47.925 8.763 47.9269 8.76393 47.9294 8.76517C47.9345 8.76765 47.9421 8.77139 47.9522 8.77635C47.9724 8.78626 48.0024 8.80103 48.0412 8.82026C48.1188 8.85873 48.2319 8.91504 48.3728 8.98605C48.6546 9.12811 49.0474 9.32878 49.4909 9.56302C50.3818 10.0337 51.4617 10.6318 52.2579 11.1596L52.8104 10.3261ZM59.7384 16.5413C59.5842 16.3106 59.2532 15.93 58.8256 15.4794C58.3887 15.0191 57.8262 14.4602 57.188 13.8649C55.9142 12.6768 54.3221 11.3283 52.8104 10.3261L52.2579 11.1596C53.7058 12.1194 55.2528 13.4274 56.5059 14.5961C57.131 15.1792 57.6789 15.7238 58.1002 16.1678C58.5309 16.6216 58.8061 16.9461 58.9071 17.0971L59.7384 16.5413ZM60.0574 17.0049C59.9556 16.8594 59.8506 16.7092 59.7384 16.5413L58.9071 17.0971C59.0259 17.2749 59.1366 17.4332 59.238 17.578L60.0574 17.0049ZM60.9883 18.6674C60.712 17.9389 60.4071 17.5048 60.0574 17.0049L59.238 17.578C59.5826 18.0708 59.8243 18.4183 60.0532 19.0219L60.9883 18.6674ZM60.9201 20.4651C61.4133 20.3829 61.4133 20.3829 61.4132 20.3828C61.4132 20.3828 61.4132 20.3828 61.4132 20.3827C61.4132 20.3827 61.4132 20.3826 61.4132 20.3825C61.4132 20.3823 61.4131 20.382 61.4131 20.3817C61.4129 20.381 61.4128 20.3801 61.4126 20.379C61.4122 20.3767 61.4117 20.3735 61.411 20.3694C61.4096 20.3611 61.4075 20.3492 61.4049 20.334C61.3995 20.3037 61.3917 20.2601 61.3817 20.2061C61.3616 20.0982 61.3324 19.9479 61.2957 19.7777C61.2238 19.4443 61.1176 19.0087 60.9883 18.6674L60.0532 19.0219C60.1546 19.2895 60.2482 19.664 60.3182 19.9886C60.3525 20.1474 60.3798 20.2881 60.3985 20.3889C60.4079 20.4392 60.4151 20.4794 60.4199 20.5068C60.4223 20.5204 60.4241 20.5308 60.4252 20.5377C60.4258 20.5411 60.4263 20.5437 60.4265 20.5453C60.4267 20.5461 60.4268 20.5466 60.4268 20.547C60.4268 20.5471 60.4269 20.5472 60.4269 20.5473C60.4269 20.5473 60.4269 20.5473 60.4269 20.5473C60.4269 20.5473 60.4269 20.5473 60.4269 20.5473C60.4269 20.5472 60.4269 20.5472 60.9201 20.4651ZM61.403 22.6199C61.5275 22.1552 61.5219 21.58 61.4958 21.1605C61.4822 20.9428 61.462 20.751 61.4451 20.6133C61.4366 20.5443 61.429 20.4885 61.4233 20.4494C61.4205 20.4298 61.4182 20.4144 61.4165 20.4036C61.4157 20.3981 61.415 20.3938 61.4145 20.3907C61.4143 20.3892 61.4141 20.3879 61.4139 20.387C61.4139 20.3865 61.4138 20.3861 61.4137 20.3858C61.4137 20.3857 61.4137 20.3855 61.4137 20.3854C61.4137 20.3853 61.4136 20.3853 61.4136 20.3852C61.4136 20.3852 61.4136 20.3851 60.9201 20.4651C60.4265 20.545 60.4265 20.545 60.4265 20.5449C60.4265 20.5449 60.4265 20.5448 60.4265 20.5448C60.4265 20.5448 60.4264 20.5448 60.4264 20.5448C60.4264 20.5447 60.4265 20.5448 60.4265 20.5449C60.4265 20.5452 60.4266 20.5458 60.4268 20.5467C60.427 20.5484 60.4275 20.5513 60.4281 20.5553C60.4293 20.5633 60.4312 20.5757 60.4336 20.5921C60.4383 20.625 60.445 20.6738 60.4525 20.7351C60.4676 20.8579 60.4857 21.0293 60.4977 21.2226C60.5227 21.625 60.5171 22.0626 60.4371 22.3611L61.403 22.6199ZM57.3261 25.8262C58.3084 25.8262 59.1945 25.5563 59.909 25.0023C60.6233 24.4484 61.1302 23.6384 61.403 22.6199L60.4371 22.3611C60.2107 23.2061 59.8096 23.8139 59.2963 24.212C58.7831 24.6099 58.1219 24.8262 57.3261 24.8262V25.8262ZM49.7388 25.8262H57.3261V24.8262H49.7388V25.8262ZM38.2716 27.0284C41.4545 26.2874 45.3797 25.8262 49.7388 25.8262V24.8262C45.3127 24.8262 41.3106 25.2942 38.0449 26.0545L38.2716 27.0284ZM27.1924 31.0436C29.4592 29.9617 33.8039 28.0685 38.2716 27.0284L38.0449 26.0545C33.4742 27.1186 29.0542 29.0469 26.7616 30.1411L27.1924 31.0436ZM22.0531 33.8505C23.9856 32.6273 25.1216 32.032 27.1924 31.0436L26.7616 30.1411C24.6654 31.1417 23.4927 31.7557 21.5183 33.0056L22.0531 33.8505ZM18.0976 36.6597C19.608 35.4957 20.4568 34.861 22.0531 33.8505L21.5183 33.0056C19.8846 34.0396 19.0083 34.6953 17.4872 35.8676L18.0976 36.6597ZM10.9605 43.0962C13.7472 40.2693 15.1317 38.9455 18.0976 36.6597L17.4872 35.8676C14.472 38.1914 13.0523 39.5498 10.2484 42.3941L10.9605 43.0962ZM3.81584 52.0623C4.24153 52.3246 4.24153 52.3246 4.24155 52.3245C4.24157 52.3245 4.2416 52.3245 4.24165 52.3244C4.24175 52.3242 4.24192 52.3239 4.24214 52.3236C4.24258 52.3229 4.24327 52.3218 4.24419 52.3203C4.24604 52.3173 4.24884 52.3127 4.25258 52.3067C4.26005 52.2946 4.27126 52.2765 4.28605 52.2527C4.31562 52.2051 4.35951 52.1347 4.41644 52.044C4.53031 51.8624 4.69633 51.5996 4.90437 51.2752C5.32055 50.6261 5.90437 49.7315 6.57489 48.749C7.92262 46.7741 9.59769 44.4787 10.9605 43.0962L10.2484 42.3941C8.8159 43.8473 7.09667 46.2104 5.74891 48.1853C5.0717 49.1776 4.48249 50.0805 4.06257 50.7354C3.85256 51.0629 3.68476 51.3285 3.56933 51.5126C3.51161 51.6046 3.46697 51.6762 3.43669 51.7249C3.42155 51.7493 3.40999 51.7679 3.40218 51.7806C3.39828 51.7869 3.39531 51.7917 3.3933 51.7949C3.39229 51.7966 3.39152 51.7978 3.391 51.7987C3.39073 51.7991 3.39053 51.7994 3.39039 51.7996C3.39032 51.7998 3.39026 51.7999 3.39022 51.7999C3.39018 51.8 3.39015 51.8 3.81584 52.0623ZM1.06376 58.3714L4.2584 52.295L3.37328 51.8296L0.178635 57.906L1.06376 58.3714ZM2.254 59.5876C1.76212 58.871 1.34141 58.2578 1.01852 57.8352L0.223879 58.4422C0.527537 58.8397 0.931117 59.4274 1.42954 60.1535L2.254 59.5876ZM8.16266 67.1023C5.77547 64.7155 3.68455 61.6717 2.254 59.5876L1.42954 60.1535C2.8523 62.2263 4.99279 65.3471 7.45563 67.8094L8.16266 67.1023ZM17.4858 73.8699C15.3375 72.8529 11.3874 70.3264 8.16266 67.1023L7.45563 67.8094C10.7642 71.1173 14.8095 73.7093 17.0579 74.7737L17.4858 73.8699ZM27.6638 77.6479C25.724 77.1596 24.5635 76.8671 23.1989 76.3734C21.8311 75.8786 20.2505 75.1787 17.4858 73.8699L17.0579 74.7737C19.8234 76.0829 21.4419 76.8012 22.8587 77.3138C24.2786 77.8274 25.488 78.1314 27.4198 78.6176L27.6638 77.6479ZM28.6972 77.9087C28.3289 77.8153 27.9857 77.7289 27.6638 77.6479L27.4198 78.6176C27.7417 78.6987 28.084 78.7848 28.4514 78.878L28.6972 77.9087ZM41.6789 77.8987C39.8039 78.1765 33.3763 79.0953 28.6972 77.9087L28.4514 78.878C33.3563 80.1219 39.9841 79.1607 41.8255 78.8879L41.6789 77.8987ZM45.6169 77.1C44.1003 77.5037 43.2379 77.6678 41.6789 77.8987L41.8255 78.8879C43.4139 78.6526 44.3141 78.4816 45.8741 78.0663L45.6169 77.1ZM51.1304 75.102C49.0315 76.0496 47.8274 76.5115 45.6169 77.1L45.8741 78.0663C48.1484 77.4609 49.4046 76.9783 51.5419 76.0134L51.1304 75.102ZM56.2546 72.303C54.3388 73.5503 53.2114 74.1624 51.1304 75.102L51.5419 76.0134C53.668 75.0535 54.8404 74.417 56.8002 73.1411L56.2546 72.303ZM61.7187 68.6711C61.3901 68.2942 61.3901 68.2942 61.3901 68.2942C61.3901 68.2943 61.3901 68.2943 61.39 68.2943C61.39 68.2944 61.3899 68.2945 61.3897 68.2946C61.3894 68.2949 61.3889 68.2953 61.3882 68.2959C61.3868 68.2971 61.3847 68.299 61.3819 68.3014C61.3762 68.3063 61.3678 68.3137 61.3566 68.3234C61.3342 68.3428 61.3009 68.3716 61.2576 68.4088C61.1712 68.4833 61.045 68.5915 60.8868 68.7258C60.5702 68.9944 60.1258 69.3671 59.6146 69.7833C58.5884 70.6188 57.3075 71.6175 56.2546 72.303L56.8002 73.1411C57.8999 72.4251 59.2147 71.3984 60.246 70.5588C60.7635 70.1374 61.2133 69.7602 61.5338 69.4882C61.6941 69.3522 61.8221 69.2424 61.9102 69.1665C61.9543 69.1286 61.9884 69.0991 62.0116 69.079C62.0231 69.069 62.032 69.0613 62.038 69.0561C62.041 69.0535 62.0433 69.0515 62.0448 69.0501C62.0456 69.0494 62.0462 69.0489 62.0466 69.0486C62.0468 69.0484 62.047 69.0482 62.0471 69.0481C62.0472 69.0481 62.0472 69.048 62.0472 69.048C62.0473 69.048 62.0473 69.048 61.7187 68.6711ZM67.6965 61.0955C66.3186 63.0923 64.7399 64.8947 63.5022 66.2004C62.8842 66.8525 62.3529 67.3788 61.9768 67.7416C61.7888 67.9229 61.6397 68.0633 61.538 68.1579C61.4871 68.2052 61.4482 68.2411 61.4221 68.2649C61.4091 68.2769 61.3993 68.2858 61.3929 68.2916C61.3897 68.2945 61.3873 68.2967 61.3858 68.298C61.3851 68.2987 61.3845 68.2992 61.3842 68.2995C61.384 68.2996 61.3839 68.2997 61.3839 68.2998C61.3839 68.2998 61.3839 68.2998 61.3838 68.2998C61.3839 68.2998 61.3839 68.2998 61.7187 68.6711C62.0535 69.0424 62.0536 69.0424 62.0537 69.0423C62.0537 69.0423 62.0538 69.0422 62.0539 69.0421C62.0541 69.042 62.0543 69.0418 62.0545 69.0415C62.0551 69.041 62.0559 69.0403 62.0569 69.0395C62.0588 69.0377 62.0616 69.0351 62.0653 69.0318C62.0727 69.0251 62.0834 69.0153 62.0974 69.0025C62.1254 68.9769 62.1663 68.9392 62.2192 68.89C62.325 68.7916 62.4785 68.6471 62.6711 68.4613C63.0562 68.0899 63.5982 67.5528 64.228 66.8883C65.4862 65.561 67.1021 63.7175 68.5195 61.6634L67.6965 61.0955ZM72.8138 49.9171C72.2627 52.1516 70.4511 57.1035 67.6965 61.0955L68.5195 61.6634C71.3555 57.5535 73.2104 52.485 73.7847 50.1566L72.8138 49.9171ZM73.5467 45.5737C73.3515 47.2082 73.2285 48.236 72.8138 49.9171L73.7847 50.1566C74.215 48.412 74.3437 47.3326 74.5397 45.6923L73.5467 45.5737ZM73.6015 45.1159C73.5825 45.274 73.5643 45.4263 73.5467 45.5737L74.5397 45.6923C74.5573 45.5448 74.5754 45.393 74.5944 45.2355L73.6015 45.1159ZM73.626 44.9132L73.6015 45.1159L74.5944 45.2356L74.6188 45.0329L73.626 44.9132ZM73.6224 44.973V44.973H74.6224V44.973H73.6224ZM73.9973 39.5103C74.022 41.6265 73.8764 42.8365 73.626 44.9131L74.6188 45.0328C74.8699 42.95 75.0228 41.6849 74.9973 39.4986L73.9973 39.5103ZM73.6023 34.7088C73.8509 36.59 73.9754 37.6352 73.9973 39.5103L74.9973 39.4986C74.9747 37.564 74.8441 36.4727 74.5936 34.5778L73.6023 34.7088ZM73.5819 34.5544L73.6023 34.7088L74.5937 34.5778L74.5732 34.4234L73.5819 34.5544ZM73.5894 34.5972L73.5895 34.5973L74.5656 34.3804L74.5656 34.3803L73.5894 34.5972ZM72.8152 30.3125C73.2365 31.941 73.3632 32.8989 73.5818 34.5542L74.5732 34.4233C74.3539 32.7622 74.2208 31.7533 73.7834 30.0621L72.8152 30.3125ZM71.8744 27.3836C72.2462 28.4063 72.5099 29.1323 72.8152 30.3125L73.7834 30.0621C73.4653 28.8326 73.1875 28.0687 72.8142 27.042L71.8744 27.3836ZM71.6307 26.7104C71.7172 26.9512 71.7981 27.1738 71.8744 27.3836L72.8142 27.042C72.7378 26.832 72.6576 26.6112 72.5719 26.3725L71.6307 26.7104ZM71.3443 25.904C71.4329 26.1549 71.527 26.4216 71.6307 26.7104L72.5719 26.3725C72.4692 26.0865 72.3759 25.8223 72.2873 25.5711L71.3443 25.904ZM70.0541 22.7087C70.6495 23.9361 70.9401 24.7589 71.3443 25.904L72.2873 25.5711C71.8815 24.4215 71.5754 23.5536 70.9538 22.2723L70.0541 22.7087ZM67.6951 18.7216C68.7229 20.2264 69.2657 21.0833 70.0541 22.7087L70.9538 22.2723C70.1364 20.587 69.5646 19.6857 68.5209 18.1576L67.6951 18.7216ZM64.1428 14.3185C65.6344 15.9716 66.4519 16.9013 67.6951 18.7216L68.5209 18.1576C67.2396 16.2815 66.3867 15.3126 64.8852 13.6486L64.1428 14.3185ZM61.3194 10.7428C60.9734 11.1038 60.9734 11.1038 60.9734 11.1038C60.9734 11.1038 60.9734 11.1038 60.9734 11.1038C60.9735 11.1039 60.9736 11.1039 60.9737 11.1041C60.9739 11.1043 60.9742 11.1046 60.9747 11.105C60.9756 11.1059 60.977 11.1073 60.9789 11.1091C60.9826 11.1126 60.9882 11.118 60.9956 11.1251C61.0104 11.1393 61.0323 11.1604 61.0606 11.1878C61.1173 11.2425 61.1998 11.3222 61.3025 11.422C61.508 11.6218 61.7943 11.9018 62.1177 12.2229C62.7662 12.8669 63.5568 13.6691 64.1428 14.3185L64.8852 13.6486C64.28 12.9778 63.4732 12.1597 62.8223 11.5133C62.4959 11.1892 62.2069 10.9066 61.9995 10.705C61.8958 10.6042 61.8125 10.5236 61.7549 10.4681C61.7262 10.4403 61.7039 10.4189 61.6887 10.4043C61.6812 10.397 61.6754 10.3915 61.6714 10.3877C61.6695 10.3858 61.668 10.3844 61.667 10.3834C61.6665 10.3829 61.6661 10.3826 61.6658 10.3823C61.6657 10.3822 61.6656 10.3821 61.6655 10.382C61.6655 10.382 61.6655 10.3819 61.6654 10.3819C61.6654 10.3819 61.6654 10.3819 61.3194 10.7428ZM56.6668 7.92919C57.6409 8.52208 58.7215 9.31867 59.5653 9.97324C59.9857 10.2993 60.3443 10.5878 60.5976 10.7947C60.7242 10.898 60.8244 10.9809 60.8927 11.0378C60.9269 11.0662 60.9531 11.0881 60.9706 11.1028C60.9794 11.1102 60.986 11.1157 60.9904 11.1194C60.9925 11.1212 60.9941 11.1226 60.9952 11.1235C60.9957 11.1239 60.9961 11.1242 60.9963 11.1244C60.9964 11.1245 60.9965 11.1246 60.9966 11.1246C60.9966 11.1247 60.9966 11.1247 60.9966 11.1247C60.9966 11.1247 60.9966 11.1247 61.3194 10.7428C61.6422 10.361 61.6422 10.361 61.6421 10.3609C61.6421 10.3609 61.642 10.3609 61.642 10.3608C61.6419 10.3607 61.6417 10.3606 61.6416 10.3605C61.6412 10.3602 61.6407 10.3598 61.6401 10.3592C61.6388 10.3581 61.637 10.3566 61.6345 10.3545C61.6297 10.3505 61.6226 10.3445 61.6134 10.3367C61.5948 10.3212 61.5676 10.2984 61.5323 10.2691C61.4618 10.2104 61.3593 10.1256 61.23 10.0201C60.9717 9.80912 60.6065 9.5153 60.1783 9.18311C59.3249 8.52113 58.2093 7.69734 57.1867 7.07497L56.6668 7.92919ZM49.554 4.32085C50.6331 4.75001 54.6935 6.72817 56.6668 7.92919L57.1867 7.07497C55.1667 5.84548 51.056 3.84203 49.9236 3.39164L49.554 4.32085ZM49.492 4.29617L49.554 4.32085L49.9236 3.39164L49.8615 3.36696L49.492 4.29617ZM44.8269 2.72128C46.6866 3.18066 47.6969 3.58218 49.4919 4.29616L49.8615 3.36696C48.0605 2.65059 46.9969 2.22724 45.0667 1.75046L44.8269 2.72128ZM40.7713 2.04764C42.2015 2.21095 43.2439 2.33025 44.8269 2.72128L45.0667 1.75046C43.4171 1.34298 42.3204 1.21803 40.8847 1.05409L40.7713 2.04764ZM39.6954 1.92205C40.0822 1.96896 40.4375 2.00952 40.7713 2.04764L40.8847 1.05409C40.5507 1.01595 40.1987 0.975751 39.8157 0.929323L39.6954 1.92205ZM38.9696 1.83265C39.1975 1.86096 39.4379 1.89084 39.6954 1.92205L39.8157 0.929324C39.5599 0.898311 39.3209 0.868613 39.0929 0.84028L38.9696 1.83265ZM35.3486 1.52039C36.7868 1.5616 37.6804 1.67248 38.9696 1.83265L39.0929 0.84028C37.7993 0.67957 36.866 0.563462 35.3772 0.520801L35.3486 1.52039ZM29.0469 1.9203C31.4964 1.5576 32.8832 1.44974 35.3486 1.52039L35.3772 0.520801C32.8446 0.448224 31.3985 0.561186 28.9004 0.931081L29.0469 1.9203ZM25.1095 2.71891C26.625 2.31377 27.4875 2.15119 29.0469 1.9203L28.9004 0.931081C27.3124 1.16621 26.4114 1.33575 24.8512 1.75284L25.1095 2.71891ZM18.8071 5.11734C21.1989 3.97128 22.5717 3.39734 25.1095 2.71891L24.8512 1.75284C22.2353 2.45215 20.8024 3.05239 18.375 4.21552L18.8071 5.11734ZM13.2838 8.31911C15.3441 6.90173 16.5574 6.19533 18.8071 5.11734L18.375 4.21552C16.0773 5.31652 14.8191 6.04916 12.717 7.49524L13.2838 8.31911ZM10.1344 10.7146C11.2958 9.70176 11.9991 9.2029 13.2838 8.31911L12.717 7.49524C11.4204 8.38729 10.6809 8.91116 9.47717 9.96089L10.1344 10.7146ZM6.61115 13.5785C6.98368 13.912 6.98367 13.912 6.98368 13.912C6.98369 13.912 6.98369 13.912 6.98371 13.9119C6.98375 13.9119 6.98382 13.9118 6.98392 13.9117C6.98411 13.9115 6.98441 13.9112 6.98482 13.9107C6.98565 13.9098 6.98692 13.9084 6.98863 13.9065C6.99204 13.9027 6.99719 13.8969 7.004 13.8894C7.01763 13.8742 7.03791 13.8517 7.06428 13.8226C7.11701 13.7643 7.19403 13.6795 7.29072 13.5741C7.48416 13.3631 7.75597 13.0696 8.06916 12.7401C8.69862 12.0778 9.48398 11.2818 10.1344 10.7146L9.47717 9.96089C8.78967 10.5604 7.97771 11.3848 7.34433 12.0512C7.02611 12.386 6.75012 12.684 6.55361 12.8983C6.45533 13.0055 6.37684 13.0919 6.32281 13.1516C6.29579 13.1814 6.27488 13.2046 6.26066 13.2204C6.25354 13.2283 6.2481 13.2344 6.24441 13.2385C6.24256 13.2406 6.24115 13.2422 6.24018 13.2432C6.2397 13.2438 6.23932 13.2442 6.23906 13.2445C6.23893 13.2446 6.23883 13.2447 6.23876 13.2448C6.23872 13.2449 6.23869 13.2449 6.23867 13.2449C6.23864 13.245 6.23862 13.245 6.61115 13.5785ZM1.10064 23.0374C1.67304 21.1019 3.1239 18.8325 4.46747 17.0152C5.13375 16.114 5.76345 15.3374 6.22651 14.7862C6.45792 14.5108 6.64741 14.292 6.77864 14.1426C6.84426 14.0678 6.89529 14.0104 6.92969 13.972C6.94689 13.9527 6.95994 13.9382 6.96857 13.9287C6.97288 13.9239 6.9761 13.9204 6.97817 13.9181C6.97921 13.9169 6.97997 13.9161 6.98043 13.9156C6.98067 13.9153 6.98083 13.9151 6.98092 13.915C6.98096 13.915 6.98097 13.915 6.98099 13.915C6.98099 13.915 6.98096 13.915 6.61115 13.5785C6.24134 13.242 6.24128 13.242 6.2412 13.2421C6.24115 13.2422 6.24105 13.2423 6.24095 13.2424C6.24075 13.2426 6.24047 13.2429 6.24012 13.2433C6.23943 13.2441 6.23844 13.2452 6.23717 13.2466C6.23463 13.2494 6.23096 13.2534 6.22617 13.2587C6.21659 13.2693 6.20258 13.2849 6.18439 13.3052C6.14802 13.3459 6.09493 13.4056 6.02717 13.4828C5.89167 13.6371 5.69742 13.8614 5.46086 14.143C4.988 14.7058 4.34483 15.499 3.66337 16.4207C2.31146 18.2493 0.767323 20.6384 0.141696 22.7538L1.10064 23.0374ZM0.621176 26.5414C1.11869 26.4917 1.11869 26.4917 1.11869 26.4917C1.11869 26.4917 1.11869 26.4917 1.11869 26.4917C1.11869 26.4916 1.11868 26.4915 1.11867 26.4914C1.11864 26.4912 1.1186 26.4908 1.11855 26.4902C1.11843 26.4891 1.11826 26.4873 1.11802 26.4849C1.11755 26.4801 1.11684 26.4727 1.11591 26.463C1.11405 26.4436 1.11133 26.4147 1.10795 26.3774C1.10118 26.3028 1.09177 26.1948 1.08129 26.0621C1.06031 25.7963 1.0352 25.4332 1.01849 25.0428C1.00174 24.6512 0.993702 24.2382 1.0059 23.8707C1.01848 23.4914 1.05176 23.2027 1.10064 23.0374L0.141696 22.7538C0.0542818 23.0494 0.0194118 23.4468 0.0064466 23.8375C-0.00691193 24.2401 0.00208998 24.6808 0.0194094 25.0855C0.0367757 25.4913 0.0627787 25.8669 0.0843931 26.1407C0.0952133 26.2778 0.104966 26.3898 0.112041 26.4678C0.115579 26.5068 0.11845 26.5373 0.120453 26.5582C0.121455 26.5687 0.12224 26.5768 0.122783 26.5823C0.123054 26.5851 0.123265 26.5872 0.123412 26.5887C0.123486 26.5895 0.123544 26.5901 0.123586 26.5905C0.123606 26.5907 0.123623 26.5909 0.123636 26.591C0.123642 26.591 0.123648 26.5911 0.123651 26.5911C0.123657 26.5912 0.123661 26.5912 0.621176 26.5414ZM1.8202 27.8623C1.64554 27.6288 1.46456 27.268 1.3202 26.9393C1.25024 26.78 1.19269 26.6371 1.15271 26.5342C1.13276 26.4829 1.11729 26.4418 1.10696 26.414C1.10179 26.4001 1.09792 26.3895 1.09541 26.3826C1.09416 26.3792 1.09325 26.3766 1.0927 26.3751C1.09242 26.3743 1.09223 26.3738 1.09213 26.3735C1.09208 26.3734 1.09205 26.3733 1.09205 26.3733C1.09205 26.3733 1.09205 26.3733 1.09206 26.3733C1.09206 26.3733 1.09207 26.3734 1.09208 26.3734C1.09209 26.3734 1.0921 26.3734 0.621176 26.5414C0.15025 26.7095 0.150267 26.7095 0.150285 26.7096C0.150293 26.7096 0.150312 26.7096 0.150328 26.7097C0.15036 26.7098 0.150398 26.7099 0.150441 26.71C0.150528 26.7102 0.150638 26.7105 0.150771 26.7109C0.151037 26.7117 0.151395 26.7127 0.151844 26.7139C0.15274 26.7164 0.154 26.7199 0.155613 26.7243C0.158837 26.7332 0.163474 26.7458 0.169443 26.7619C0.181375 26.7941 0.198661 26.84 0.220647 26.8965C0.264534 27.0094 0.327593 27.166 0.404599 27.3413C0.554167 27.6819 0.772517 28.1312 1.01948 28.4613L1.8202 27.8623ZM7.63311 29.3142C5.41793 30.1474 3.19596 29.7012 1.8202 27.8623L1.01948 28.4613C2.71315 30.7252 5.43977 31.2076 7.98517 30.2502L7.63311 29.3142Z" fill="#EEEEEF"/>
<line y1="-1.5" x2="24.1333" y2="-1.5" transform="matrix(0.702023 -0.712154 0.702023 0.712154 40.433 56.9028)" stroke="#EEEEEF" stroke-width="3"/>
<line y1="-1.5" x2="24.1333" y2="-1.5" transform="matrix(0.702023 0.712154 -0.702023 0.712154 38.8357 39.7161)" stroke="#EEEEEF" stroke-width="3"/>
</svg>
