<svg width="22" height="20" viewBox="0 0 22 20" fill="none" xmlns="http://www.w3.org/2000/svg">
<path fill-rule="evenodd" clip-rule="evenodd" d="M19.769 15.6907C18.5752 15.0574 17.4238 14.7458 16.5204 14.5575C16.5222 14.5566 16.5241 14.5566 16.5259 14.5558C16.4356 14.5372 16.3545 14.522 16.2687 14.506C16.2125 14.495 16.1563 14.4832 16.1019 14.4739C15.5847 14.3759 15.1782 14.3143 14.956 14.2476C14.3725 14.0694 13.7448 13.8811 13.7448 13.1211C13.7448 12.3619 13.7337 12.2623 13.9328 12.1609C14.3117 11.965 14.5357 11.6627 14.5855 11.428C14.6777 10.9897 14.7256 9.76188 14.8454 9.60566C14.9653 9.44606 15.1801 9.58201 15.2538 9.22228C15.3248 8.86255 15.3248 8.54673 15.3958 8.41246C15.4677 8.27735 15.7184 7.40588 15.5635 7.10695C15.4253 6.84011 15.1745 6.97944 15.157 6.81393C15.1266 6.54455 15.6622 4.28313 15.2999 3.32553C15.0962 2.78256 14.6657 2.27927 14.662 2.26744C14.3983 1.38838 12.5796 0.91718 12.1242 0.736469C11.6688 0.556602 10.3293 0.309181 9.41949 0.736469C8.50964 1.1646 8.26535 1.74051 7.88095 1.96513C7.49839 2.19144 7.09001 2.32909 6.7139 3.32553C6.35162 4.28313 6.88721 6.54455 6.85771 6.81393C6.84019 6.97944 6.58853 6.84011 6.4521 7.10695C6.29539 7.40588 6.54705 8.27735 6.61803 8.41246C6.68993 8.54673 6.68993 8.86255 6.76276 9.22228C6.83374 9.58201 7.04853 9.44606 7.16929 9.60566C7.28913 9.76188 7.33706 10.9897 7.42925 11.428C7.47811 11.6627 7.70303 11.965 8.08191 12.1609C8.2801 12.2623 8.26996 12.3619 8.26996 13.1211C8.26996 13.8811 7.64311 14.0694 7.05775 14.2476C6.4309 14.4384 4.38442 14.5473 2.23101 15.6907C0.37996 16.6728 0.501643 19.5 0.501643 19.5H8.67926H10.5552H21.4983C21.4983 19.5 21.6209 16.6728 19.769 15.6907Z" fill="#B3B3B3"/>
</svg>
