<svg width="20" height="21" viewBox="0 0 20 21" fill="none" xmlns="http://www.w3.org/2000/svg">
<path fill-rule="evenodd" clip-rule="evenodd" d="M19.6835 19.1848L14.7866 14.3669C16.0778 12.8964 16.8599 10.9736 16.8599 8.86957C16.8599 4.24718 13.0856 0.5 8.42993 0.5C3.77421 0.5 0 4.24718 0 8.86957C0 13.492 3.77421 17.2391 8.42993 17.2391C10.1895 17.2391 11.8231 16.7039 13.1747 15.7885L18.155 20.6886C18.5771 21.1038 19.2614 21.1038 19.6835 20.6886C20.1055 20.2733 20.1055 19.6 19.6835 19.1848ZM14.6984 8.86955C14.6984 12.3067 11.8919 15.0931 8.42997 15.0931C4.96802 15.0931 2.16156 12.3067 2.16156 8.86955C2.16156 5.43239 4.96802 2.64602 8.42997 2.64602C11.8919 2.64602 14.6984 5.43239 14.6984 8.86955Z" fill="#B3B3B3"/>
</svg>
