<svg width="24" height="24" viewBox="0 0 24 24" fill="none" xmlns="http://www.w3.org/2000/svg">
<path fill-rule="evenodd" clip-rule="evenodd" d="M12 1C11.5319 1 11.1532 1.37872 11.1532 1.84678V1.99146C11.1532 2.39607 10.8694 2.75701 10.4689 2.8225C10.2765 2.85195 10.0846 2.89002 9.89422 2.93165C9.50129 3.02252 9.10481 2.80067 8.94997 2.42805L8.89464 2.29707C8.71594 1.86455 8.22249 1.65844 7.78997 1.83866C7.35744 2.01735 7.15133 2.51131 7.33206 2.94333L7.38739 3.08039C7.54426 3.45099 7.41937 3.89316 7.0762 4.10536C6.90968 4.20842 6.74672 4.31756 6.59036 4.43077C6.26089 4.6648 5.80704 4.61099 5.52123 4.32569L5.42021 4.22263C5.08921 3.89316 4.55363 3.89316 4.22263 4.22263C3.89316 4.55363 3.89316 5.08921 4.22263 5.42021L4.32569 5.52123C4.61099 5.80704 4.6648 6.26089 4.43077 6.59036C4.31756 6.74672 4.20842 6.90968 4.10536 7.0762C3.89316 7.41937 3.45099 7.54426 3.07836 7.38942L2.94333 7.33409C2.51283 7.15539 2.01532 7.35947 1.83663 7.792C1.65844 8.22249 1.86252 8.71797 2.29504 8.89667L2.42805 8.94997C2.79864 9.10481 3.02252 9.50129 2.93165 9.89422C2.89002 10.0846 2.85195 10.2765 2.82047 10.4689C2.75701 10.8679 2.39607 11.1532 1.99146 11.1532H1.84678C1.37872 11.1532 1 11.5319 1 12C1 12.4681 1.37872 12.8468 1.84678 12.8468H1.99146C2.39607 12.8468 2.75701 13.1306 2.8225 13.5311C2.85195 13.7235 2.89002 13.9154 2.93165 14.1058C3.02252 14.4987 2.80067 14.8952 2.42805 15.05L2.29707 15.1054C1.86455 15.2841 1.65844 15.7775 1.83866 16.21C2.01735 16.6426 2.51131 16.8487 2.94333 16.6679L3.08039 16.6126C3.45302 16.4578 3.89316 16.5827 4.10739 16.9238C4.21045 17.0903 4.31756 17.2533 4.43077 17.4117C4.66684 17.7411 4.61302 18.195 4.32772 18.4788L4.22263 18.5818C3.89316 18.9128 3.89316 19.4484 4.22263 19.7774C4.55363 20.1089 5.08921 20.1089 5.42021 19.7774L5.52326 19.6763C5.80907 19.391 6.26089 19.3352 6.59036 19.5713C6.74875 19.6845 6.91171 19.7936 7.0762 19.8967C7.41937 20.1089 7.54629 20.551 7.39145 20.9237L7.33409 21.0567C7.15539 21.4887 7.3615 21.9847 7.792 22.1649C8.22402 22.3436 8.71797 22.1395 8.8987 21.707L8.952 21.574C9.10684 21.2034 9.50332 20.9795 9.89575 21.0683C10.0861 21.112 10.2765 21.1496 10.4709 21.1816C10.8679 21.243 11.1532 21.6039 11.1532 22.0085V22.1532C11.1532 22.6213 11.5319 23 12 23C12.4681 23 12.8468 22.6213 12.8468 22.1532V22.0085C12.8468 21.6039 13.1306 21.243 13.5311 21.1775C13.7235 21.1481 13.9154 21.11 14.1058 21.0683C14.4987 20.9775 14.8952 21.1993 15.05 21.5719L15.1054 21.7029C15.2841 22.1355 15.7775 22.3416 16.21 22.1613C16.6426 21.9826 16.8487 21.4887 16.6679 21.0567L16.6126 20.9196C16.4578 20.547 16.5827 20.1068 16.9238 19.8926C17.0903 19.7896 17.2533 19.6824 17.4117 19.5692C17.7411 19.3332 18.195 19.387 18.4788 19.6723L18.5818 19.7774C18.9128 20.1068 19.4484 20.1068 19.7774 19.7774C20.1089 19.4464 20.1089 18.9108 19.7774 18.5798L19.6763 18.4767C19.391 18.1909 19.3352 17.7391 19.5713 17.4096C19.6845 17.2512 19.7936 17.0883 19.8967 16.9218C20.1089 16.5806 20.551 16.4537 20.9237 16.6085L21.0567 16.6659C21.4887 16.8446 21.9847 16.6385 22.1649 16.208C22.3436 15.776 22.1395 15.282 21.707 15.1013L21.574 15.048C21.2034 14.8932 20.9795 14.4967 21.0683 14.1043C21.112 13.9139 21.1496 13.7235 21.1816 13.5291C21.243 13.1321 21.6039 12.8468 22.0085 12.8468H22.1532C22.6213 12.8468 23 12.4681 23 12C23 11.5319 22.6213 11.1532 22.1532 11.1532H22.0085C21.6039 11.1532 21.243 10.8694 21.1775 10.4689C21.1481 10.2765 21.11 10.0846 21.0683 9.89422C20.9775 9.50129 21.1993 9.10481 21.5719 8.94997L21.7029 8.89464C22.1355 8.71594 22.3416 8.22249 22.1613 7.78997C21.9826 7.35744 21.4887 7.15133 21.0567 7.33206L20.9196 7.38739C20.547 7.54223 20.1068 7.41734 19.8926 7.0762C19.7896 6.90968 19.6824 6.74672 19.5692 6.58833C19.3332 6.25886 19.387 5.80501 19.6723 5.52123L19.7774 5.41817C20.1068 5.08718 20.1068 4.5516 19.7774 4.2206C19.4464 3.89113 18.9108 3.89113 18.5798 4.2206L18.4788 4.32569C18.193 4.61099 17.7391 4.66684 17.4096 4.43077C17.2512 4.31756 17.0883 4.20842 16.9218 4.10536C16.5806 3.89316 16.4557 3.45099 16.6106 3.07836L16.6659 2.94333C16.8446 2.51283 16.6405 2.01532 16.208 1.83663C15.7775 1.65844 15.282 1.86252 15.1033 2.29504L15.048 2.42805C14.8932 2.79864 14.4967 3.02252 14.1043 2.93165C13.9139 2.89002 13.7235 2.85195 13.5291 2.82047C13.1306 2.75701 12.8468 2.39607 12.8468 1.99146V1.84678C12.8468 1.37872 12.4681 1 12 1ZM12.0001 5.23184C15.4507 5.23184 18.2941 7.81583 18.7109 11.1532H13.4637C13.1621 10.6298 12.6032 10.3084 12.0001 10.3084H11.9981L9.37447 5.7593C10.1817 5.42018 11.068 5.23184 12.0001 5.23184ZM7.9128 6.61221L10.5364 11.1532C10.3876 11.4111 10.3084 11.7025 10.3084 12C10.3084 12.2955 10.3876 12.5869 10.5364 12.8427L7.91077 17.3858C6.28473 16.1486 5.23184 14.1992 5.23184 12C5.23184 9.7988 6.28676 7.84938 7.9128 6.61221ZM13.4637 12.8468H18.7109C18.2941 16.1841 15.4507 18.7681 12.0001 18.7681C11.068 18.7681 10.1817 18.5798 9.37447 18.2407L11.9981 13.6915H12.0001C12.6047 13.6915 13.1621 13.3681 13.4637 12.8468Z" fill="#B3B3B3"/>
</svg>
