<svg width="24" height="24" viewBox="0 0 24 24" fill="none" xmlns="http://www.w3.org/2000/svg">
<path d="M5.82666 3.25209C5.76812 3.1779 5.69705 3.11752 5.61759 3.07443C5.53814 3.03134 5.45186 3.00641 5.36377 3.00108C5.27567 2.99575 5.18751 3.01014 5.1044 3.04339C5.02129 3.07665 4.94487 3.12812 4.87959 3.19482C4.8143 3.26152 4.76144 3.34212 4.72406 3.43196C4.68669 3.52179 4.66555 3.61907 4.66187 3.71816C4.65818 3.81725 4.67203 3.91617 4.70261 4.0092C4.73319 4.10223 4.77988 4.18751 4.83999 4.2601L6.44333 6.24332C3.41666 8.33146 2.11499 11.5503 2.05749 11.6965C2.01959 11.7923 2 11.896 2 12.0009C2 12.1058 2.01959 12.2096 2.05749 12.3054C2.08666 12.3794 2.79249 14.1387 4.36166 15.9027C6.4525 18.2523 9.09333 19.4945 12 19.4945C13.4938 19.504 14.9726 19.1583 16.3392 18.4799L18.1725 20.7479C18.2311 20.8221 18.3021 20.8825 18.3816 20.9256C18.461 20.9687 18.5473 20.9936 18.6354 20.9989C18.7235 21.0042 18.8117 20.9899 18.8948 20.9566C18.9779 20.9234 19.0543 20.8719 19.1196 20.8052C19.1849 20.7385 19.2377 20.6579 19.2751 20.568C19.3125 20.4782 19.3336 20.3809 19.3373 20.2818C19.341 20.1828 19.3271 20.0838 19.2966 19.9908C19.266 19.8978 19.2193 19.8125 19.1592 19.7399L5.82666 3.25209ZM9.77083 10.3568L13.2433 14.6521C12.7204 14.9614 12.1209 15.0666 11.539 14.9514C10.9571 14.8361 10.4257 14.5068 10.0283 14.0153C9.63095 13.5237 9.39003 12.8977 9.34342 12.2355C9.29681 11.5734 9.44715 10.9125 9.77083 10.3568ZM12 17.9956C9.435 17.9956 7.19416 16.9473 5.33916 14.8807C4.57776 14.03 3.93018 13.0597 3.41666 12C3.80749 11.1765 5.05499 8.872 7.3625 7.37405L8.8625 9.22424C8.28178 10.0603 7.98269 11.1003 8.01811 12.1604C8.05352 13.2204 8.42115 14.2322 9.05603 15.017C9.6909 15.8018 10.5521 16.309 11.4875 16.4489C12.4229 16.5889 13.3721 16.3526 14.1675 15.7819L15.395 17.2995C14.3117 17.7668 13.1603 18.0028 12 17.9956ZM12.5 9.05561C12.3263 9.01835 12.1729 8.90503 12.0735 8.74058C11.9741 8.57614 11.9368 8.37405 11.97 8.17876C12.0032 7.98348 12.104 7.81099 12.2502 7.69926C12.3965 7.58752 12.5763 7.54568 12.75 7.58295C13.5997 7.76813 14.3733 8.25713 14.9556 8.977C15.5378 9.69688 15.8975 10.6091 15.9808 11.5775C15.9973 11.7754 15.9432 11.9725 15.8303 12.1256C15.7175 12.2786 15.5552 12.3749 15.3792 12.3935C15.3584 12.3948 15.3375 12.3948 15.3167 12.3935C15.15 12.3943 14.9892 12.3249 14.8658 12.199C14.7424 12.0731 14.6654 11.8999 14.65 11.7133C14.5939 11.0692 14.3543 10.4626 13.967 9.98375C13.5796 9.50491 13.0651 9.1794 12.5 9.05561ZM21.94 12.3054C21.905 12.3935 21.0608 14.4947 19.16 16.4086C19.0951 16.4761 19.0188 16.5284 18.9357 16.5624C18.8526 16.5964 18.7643 16.6115 18.676 16.6068C18.5876 16.6021 18.501 16.5777 18.4212 16.535C18.3413 16.4923 18.2698 16.4322 18.2108 16.3581C18.1518 16.284 18.1065 16.1975 18.0776 16.1035C18.0486 16.0096 18.0366 15.9101 18.0422 15.8109C18.0478 15.7116 18.0709 15.6147 18.1101 15.5256C18.1494 15.4365 18.204 15.3571 18.2708 15.2919C19.2034 14.3501 19.9868 13.2369 20.5875 12C20.0729 10.9393 19.4239 9.96833 18.6608 9.11744C16.8058 7.05272 14.565 6.00443 12 6.00443C11.4595 6.00369 10.92 6.05288 10.3867 6.15151C10.2999 6.16875 10.211 6.16651 10.1251 6.1449C10.0391 6.1233 9.95786 6.08277 9.88593 6.02565C9.814 5.96852 9.75285 5.89595 9.70601 5.81211C9.65917 5.72827 9.62757 5.63483 9.61304 5.53718C9.59851 5.43954 9.60133 5.33962 9.62135 5.24321C9.64136 5.14679 9.67817 5.05579 9.72964 4.97546C9.78112 4.89513 9.84624 4.82706 9.92125 4.77519C9.99626 4.72331 10.0797 4.68866 10.1667 4.67323C10.7726 4.56075 11.3858 4.50467 12 4.50554C14.9067 4.50554 17.5475 5.74775 19.6383 8.0982C21.2075 9.86221 21.9133 11.6225 21.9425 11.6965C21.9804 11.7923 22 11.896 22 12.0009C22 12.1058 21.9804 12.2096 21.9425 12.3054H21.94Z" fill="#B3B3B3"/>
</svg>
